<svg version="1.2" xmlns="http://www.w3.org/2000/svg" viewBox="0 0 720 720" width="720" height="720">
	<style>
		.s0 { fill: #105e9a } 
	</style>
	<path id="&lt;Path&gt;" class="s0" d="m217.17 343.45v3.36h-10.65c-5.76 0-10.43 4.67-10.43 10.42 0 5.76 4.67 10.42 10.43 10.42h10.65v34.34c14.55 0 26.34-11.8 26.34-26.35v-58.53c-14.54 0-26.34 11.79-26.34 26.34z"/>
	<path id="&lt;Path&gt;" class="s0" d="m162.29 343.34v58.65c14.48 0 26.22-11.75 26.22-26.23v-8.11-20.84-29.7c-14.48 0-26.22 11.74-26.22 26.23z"/>
	<path id="&lt;Path&gt;" class="s0" d="m316.17 326.71v41.3q0 6.94-3.85 10.72-3.85 3.79-10.62 3.79-6.83 0-10.68-3.84-3.85-3.84-3.85-10.67v-41.3c0-5.3-4.3-9.6-9.61-9.6h-16.56v49.72q0 6.14 2.43 14.11 1.51 4.95 5.59 9.61 4.08 4.67 9 7.2 4.92 2.53 12.25 3.38 7.32 0.86 13.51 0.86 10.72-0.01 18.36-2.79 5.5-1.99 10.51-6.91 5-4.92 7.35-11.5 2.34-6.57 2.34-13.96v-49.72h-16.56c-5.3 0-9.61 4.3-9.61 9.6z"/>
	<path id="&lt;Path&gt;" class="s0" d="m416.33 364.07l-18.17-26.72c-8.62-12.66-22.95-20.24-38.27-20.24v84.88c13.62 0 24.66-11.05 24.66-24.67v-21.94l31.78 46.61c13.66 0 24.73-11.07 24.73-24.73v-32.67h-24.73z"/>
	<path id="&lt;Path&gt;" class="s0" d="m437.29 317.11c-11.57 0-20.96 9.38-20.96 20.96h62.94v63.92c14.48 0 26.23-11.75 26.23-26.23v-37.69h34.32l-14.21-20.96z"/>
	<path id="&lt;Path&gt;" class="s0" d="m613.53 317.11c-6.72 0-12.94 3.53-16.39 9.29l-11.57 19.34-11.55-19.33c-3.44-5.77-9.67-9.3-16.39-9.3h-18.3l25.14 37.51c5.17 7.7 7.92 16.77 7.92 26.04v21.33h26.29v-21.35c0-9.26 2.75-18.31 7.9-26.01l25.1-37.52z"/>
	<path id="&lt;Compound Path&gt;" fill-rule="evenodd" class="s0" d="m144.14 364.38q4.31 5.36 4.31 13.46 0 6.6-3.07 11.87-3.07 5.27-8.39 8.34-3.3 1.91-9.96 2.78-8.86 1.16-11.76 1.16h-7.45c-20.89 0-37.82-16.94-37.82-37.83v-41.83c0-2.88 2.34-5.22 5.22-5.22h43.88q12.27 0 18.84 6.08 6.57 6.08 6.57 15.05 0 7.53-4.69 12.91-0.45 0.53-0.97 1.02c-2.45 2.33-2.17 6.4 0.7 8.2q2.74 1.72 4.59 4.01zm-21.98 10.51q0-3.76-2.75-6.05-2.75-2.29-9.64-2.29h-1.91c-2.88 0-5.22-2.33-5.22-5.22v-5.71c0-2.88 2.34-5.22 5.22-5.22q6.14 0 8.54-2.11 2.41-2.12 2.41-6.11 0-3.71-2.41-5.79-2.4-2.09-8.36-2.09h-6.36c-2.88 0-5.22 2.34-5.22 5.23v39c0 2.88 2.34 5.22 5.22 5.22h8.15q6.78 0 9.56-2.41 2.77-2.4 2.77-6.45z"/>
	<path id="&lt;Path&gt;" class="s0" d="m650 322.21c-0.05-3.47-4.67-4.73-6.64-1.87l-19.82 28.82-5.45 7.91q-0.37 0.56-0.73 1.12-2.54 3.93-4.24 8.23c-2.14 5.44-3.26 11.26-3.26 17.16v0.13 18.25h0.78c10.32-0.25 21.87-5.17 29.77-12.71q0.16-0.15 0.31-0.32c5.78-6.64 9.28-15.31 9.28-24.8v-41.84q0-0.04 0-0.08z"/>
</svg>