<svg version="1.2" xmlns="http://www.w3.org/2000/svg" viewBox="0 0 1830 252" width="1830" height="252">
	<style>
		.s0 { fill: #105e9a } 
	</style>
	<path id="&lt;Path&gt;" class="s0" d="m507.69 80.65v9.57h-30.38c-16.42 0-29.72 13.31-29.72 29.72 0 16.42 13.3 29.72 29.72 29.72h30.38v97.91c41.49 0 75.13-33.63 75.13-75.12v-166.93c-41.49 0-75.13 33.64-75.13 75.13z"/>
	<path id="&lt;Path&gt;" class="s0" d="m351.18 80.32v167.25c41.3 0 74.79-33.49 74.79-74.79v-23.12-59.44-84.7c-41.31 0-74.79 33.49-74.79 74.8z"/>
	<path id="&lt;Path&gt;" class="s0" d="m790.02 32.92v117.77q0 19.79-10.98 30.57-10.98 10.79-30.29 10.79-19.49 0-30.47-10.95-10.98-10.94-10.98-30.41v-117.77c0-15.13-12.26-27.4-27.39-27.4h-47.23v141.79q0 17.52 6.93 40.23 4.29 14.12 15.93 27.42 11.64 13.3 25.68 20.52 14.03 7.22 34.92 9.66 20.88 2.43 38.55 2.43 30.54 0 52.34-7.95 15.68-5.68 29.97-19.71 14.27-14.03 20.96-32.77 6.69-18.74 6.69-39.83v-141.79h-47.24c-15.12 0-27.39 12.27-27.39 27.4z"/>
	<path id="&lt;Path&gt;" class="s0" d="m1075.65 139.44l-51.84-76.18c-24.58-36.12-65.44-57.74-109.14-57.74v242.05c38.85 0 70.34-31.49 70.34-70.34v-62.56l90.64 132.9c38.94 0 70.5-31.57 70.5-70.5v-93.18h-70.5z"/>
	<path id="&lt;Path&gt;" class="s0" d="m1135.42 5.52c-33.01 0-59.77 26.76-59.77 59.77h179.47v182.28c41.31 0 74.79-33.49 74.79-74.79v-107.49h97.9l-40.53-59.77z"/>
	<path id="&lt;Path&gt;" class="s0" d="m1637.99 5.52c-19.15 0-36.89 10.06-46.72 26.49l-33.02 55.17-32.92-55.13c-9.82-16.45-27.58-26.53-46.74-26.53h-52.18l71.69 106.97c14.73 21.97 22.59 47.83 22.59 74.27v60.81h74.95v-60.86c0-26.42 7.84-52.23 22.53-74.18l71.58-107.01z"/>
	<path id="&lt;Compound Path&gt;" fill-rule="evenodd" class="s0" d="m299.42 140.33q12.29 15.28 12.3 38.39 0 18.82-8.75 33.85-8.76 15.02-23.95 23.77-9.41 5.45-28.39 7.93-25.26 3.3-33.52 3.3h-21.25c-59.57 0-107.86-48.29-107.86-107.86v-119.3c0-8.22 6.67-14.89 14.89-14.89h125.12q35 0 53.74 17.34 18.74 17.34 18.74 42.93 0 21.46-13.37 36.82-1.3 1.49-2.78 2.89c-7 6.65-6.18 18.27 2 23.4q7.8 4.89 13.08 11.43zm-62.66 29.97q0-10.73-7.84-17.25-7.85-6.52-27.49-6.52h-5.45c-8.22 0-14.89-6.67-14.89-14.89v-16.29c0-8.22 6.67-14.89 14.89-14.89q17.5 0 24.35-6.02 6.85-6.03 6.85-17.42 0-10.57-6.85-16.51-6.85-5.95-23.86-5.95h-18.13c-8.22 0-14.89 6.67-14.89 14.89v111.22c0 8.23 6.67 14.89 14.89 14.89h23.25q19.32 0 27.24-6.85 7.93-6.85 7.93-18.41z"/>
	<path id="&lt;Path&gt;" class="s0" d="m1742 17.23c-0.15-9.91-13.31-13.51-18.93-5.33l-56.52 82.17-15.53 22.56c-0.73 1.05-1.41 2.13-2.11 3.19-4.81 7.46-8.87 15.32-12.08 23.48-6.11 15.51-9.3 32.1-9.3 48.94v0.35 52.04h2.22c29.44-0.69 62.38-14.72 84.91-36.23q0.45-0.43 0.87-0.91c16.48-18.93 26.47-43.66 26.47-70.73v-119.3q0-0.12 0-0.23z"/>
	<path id="&lt;Path&gt; copy" class="s0" d="m507.69 80.65v9.57h-30.38c-16.42 0-29.72 13.31-29.72 29.72 0 16.42 13.3 29.72 29.72 29.72h30.38v97.91c41.49 0 75.13-33.63 75.13-75.12v-166.93c-41.49 0-75.13 33.64-75.13 75.13z"/>
	<path id="&lt;Path&gt; copy 2" class="s0" d="m351.18 80.32v167.25c41.3 0 74.79-33.49 74.79-74.79v-23.12-59.44-84.7c-41.31 0-74.79 33.49-74.79 74.8z"/>
	<path id="&lt;Path&gt; copy 3" class="s0" d="m790.02 32.92v117.77q0 19.79-10.98 30.57-10.98 10.79-30.29 10.79-19.49 0-30.47-10.95-10.98-10.94-10.98-30.41v-117.77c0-15.13-12.26-27.4-27.39-27.4h-47.23v141.79q0 17.52 6.93 40.23 4.29 14.12 15.93 27.42 11.64 13.3 25.68 20.52 14.03 7.22 34.92 9.66 20.88 2.43 38.55 2.43 30.54 0 52.34-7.95 15.68-5.68 29.97-19.71 14.27-14.03 20.96-32.77 6.69-18.74 6.69-39.83v-141.79h-47.24c-15.12 0-27.39 12.27-27.39 27.4z"/>
	<path id="&lt;Path&gt; copy 4" class="s0" d="m1075.65 139.44l-51.84-76.18c-24.58-36.12-65.44-57.74-109.14-57.74v242.05c38.85 0 70.34-31.49 70.34-70.34v-62.56l90.64 132.9c38.94 0 70.5-31.57 70.5-70.5v-93.18h-70.5z"/>
	<path id="&lt;Path&gt; copy 5" class="s0" d="m1135.42 5.52c-33.01 0-59.77 26.76-59.77 59.77h179.47v182.28c41.31 0 74.79-33.49 74.79-74.79v-107.49h97.9l-40.53-59.77z"/>
	<path id="&lt;Path&gt; copy 6" class="s0" d="m1637.99 5.52c-19.15 0-36.89 10.06-46.72 26.49l-33.02 55.17-32.92-55.13c-9.82-16.45-27.58-26.53-46.74-26.53h-52.18l71.69 106.97c14.73 21.97 22.59 47.83 22.59 74.27v60.81h74.95v-60.86c0-26.42 7.84-52.23 22.53-74.18l71.58-107.01z"/>
	<path id="&lt;Compound Path&gt; copy" fill-rule="evenodd" class="s0" d="m299.42 140.33q12.29 15.28 12.3 38.39 0 18.82-8.75 33.85-8.76 15.02-23.95 23.77-9.41 5.45-28.39 7.93-25.26 3.3-33.52 3.3h-21.25c-59.57 0-107.86-48.29-107.86-107.86v-119.3c0-8.22 6.67-14.89 14.89-14.89h125.12q35 0 53.74 17.34 18.74 17.34 18.74 42.93 0 21.46-13.37 36.82-1.3 1.49-2.78 2.89c-7 6.65-6.18 18.27 2 23.4q7.8 4.89 13.08 11.43zm-62.66 29.97q0-10.73-7.84-17.25-7.85-6.52-27.49-6.52h-5.45c-8.22 0-14.89-6.67-14.89-14.89v-16.29c0-8.22 6.67-14.89 14.89-14.89q17.5 0 24.35-6.02 6.85-6.03 6.85-17.42 0-10.57-6.85-16.51-6.85-5.95-23.86-5.95h-18.13c-8.22 0-14.89 6.67-14.89 14.89v111.22c0 8.23 6.67 14.89 14.89 14.89h23.25q19.32 0 27.24-6.85 7.93-6.85 7.93-18.41z"/>
	<path id="&lt;Path&gt; copy 7" class="s0" d="m1742 17.23c-0.15-9.91-13.31-13.51-18.93-5.33l-56.52 82.17-15.53 22.56c-0.73 1.05-1.41 2.13-2.11 3.19-4.81 7.46-8.87 15.32-12.08 23.48-6.11 15.51-9.3 32.1-9.3 48.94v0.35 52.04h2.22c29.44-0.69 62.38-14.72 84.91-36.23q0.45-0.43 0.87-0.91c16.48-18.93 26.47-43.66 26.47-70.73v-119.3q0-0.12 0-0.23z"/>
	<path id="&lt;Path&gt; copy 22" class="s0" d="m507.69 80.65v9.57h-30.38c-16.42 0-29.72 13.31-29.72 29.72 0 16.42 13.3 29.72 29.72 29.72h30.38v97.91c41.49 0 75.13-33.63 75.13-75.12v-166.93c-41.49 0-75.13 33.64-75.13 75.13z"/>
	<path id="&lt;Path&gt; copy 23" class="s0" d="m351.18 80.32v167.25c41.3 0 74.79-33.49 74.79-74.79v-23.12-59.44-84.7c-41.31 0-74.79 33.49-74.79 74.8z"/>
	<path id="&lt;Path&gt; copy 24" class="s0" d="m790.02 32.92v117.77q0 19.79-10.98 30.57-10.98 10.79-30.29 10.79-19.49 0-30.47-10.95-10.98-10.94-10.98-30.41v-117.77c0-15.13-12.26-27.4-27.39-27.4h-47.23v141.79q0 17.52 6.93 40.23 4.29 14.12 15.93 27.42 11.64 13.3 25.68 20.52 14.03 7.22 34.92 9.66 20.88 2.43 38.55 2.43 30.54 0 52.34-7.95 15.68-5.68 29.97-19.71 14.27-14.03 20.96-32.77 6.69-18.74 6.69-39.83v-141.79h-47.24c-15.12 0-27.39 12.27-27.39 27.4z"/>
	<path id="&lt;Path&gt; copy 25" class="s0" d="m1075.65 139.44l-51.84-76.18c-24.58-36.12-65.44-57.74-109.14-57.74v242.05c38.85 0 70.34-31.49 70.34-70.34v-62.56l90.64 132.9c38.94 0 70.5-31.57 70.5-70.5v-93.18h-70.5z"/>
	<path id="&lt;Path&gt; copy 26" class="s0" d="m1135.42 5.52c-33.01 0-59.77 26.76-59.77 59.77h179.47v182.28c41.31 0 74.79-33.49 74.79-74.79v-107.49h97.9l-40.53-59.77z"/>
	<path id="&lt;Path&gt; copy 27" class="s0" d="m1637.99 5.52c-19.15 0-36.89 10.06-46.72 26.49l-33.02 55.17-32.92-55.13c-9.82-16.45-27.58-26.53-46.74-26.53h-52.18l71.69 106.97c14.73 21.97 22.59 47.83 22.59 74.27v60.81h74.95v-60.86c0-26.42 7.84-52.23 22.53-74.18l71.58-107.01z"/>
	<path id="&lt;Compound Path&gt; copy 4" fill-rule="evenodd" class="s0" d="m299.42 140.33q12.29 15.28 12.3 38.39 0 18.82-8.75 33.85-8.76 15.02-23.95 23.77-9.41 5.45-28.39 7.93-25.26 3.3-33.52 3.3h-21.25c-59.57 0-107.86-48.29-107.86-107.86v-119.3c0-8.22 6.67-14.89 14.89-14.89h125.12q35 0 53.74 17.34 18.74 17.34 18.74 42.93 0 21.46-13.37 36.82-1.3 1.49-2.78 2.89c-7 6.65-6.18 18.27 2 23.4q7.8 4.89 13.08 11.43zm-62.66 29.97q0-10.73-7.84-17.25-7.85-6.52-27.49-6.52h-5.45c-8.22 0-14.89-6.67-14.89-14.89v-16.29c0-8.22 6.67-14.89 14.89-14.89q17.5 0 24.35-6.02 6.85-6.03 6.85-17.42 0-10.57-6.85-16.51-6.85-5.95-23.86-5.95h-18.13c-8.22 0-14.89 6.67-14.89 14.89v111.22c0 8.23 6.67 14.89 14.89 14.89h23.25q19.32 0 27.24-6.85 7.93-6.85 7.93-18.41z"/>
	<path id="&lt;Path&gt; copy 8" class="s0" d="m507.69 80.65v9.57h-30.38c-16.42 0-29.72 13.31-29.72 29.72 0 16.42 13.3 29.72 29.72 29.72h30.38v97.91c41.49 0 75.13-33.63 75.13-75.12v-166.93c-41.49 0-75.13 33.64-75.13 75.13z"/>
	<path id="&lt;Path&gt; copy 9" class="s0" d="m351.18 80.32v167.25c41.3 0 74.79-33.49 74.79-74.79v-23.12-59.44-84.7c-41.31 0-74.79 33.49-74.79 74.8z"/>
	<path id="&lt;Path&gt; copy 10" class="s0" d="m790.02 32.92v117.77q0 19.79-10.98 30.57-10.98 10.79-30.29 10.79-19.49 0-30.47-10.95-10.98-10.94-10.98-30.41v-117.77c0-15.13-12.26-27.4-27.39-27.4h-47.23v141.79q0 17.52 6.93 40.23 4.29 14.12 15.93 27.42 11.64 13.3 25.68 20.52 14.03 7.22 34.92 9.66 20.88 2.43 38.55 2.43 30.54 0 52.34-7.95 15.68-5.68 29.97-19.71 14.27-14.03 20.96-32.77 6.69-18.74 6.69-39.83v-141.79h-47.24c-15.12 0-27.39 12.27-27.39 27.4z"/>
	<path id="&lt;Path&gt; copy 11" class="s0" d="m1075.65 139.44l-51.84-76.18c-24.58-36.12-65.44-57.74-109.14-57.74v242.05c38.85 0 70.34-31.49 70.34-70.34v-62.56l90.64 132.9c38.94 0 70.5-31.57 70.5-70.5v-93.18h-70.5z"/>
	<path id="&lt;Path&gt; copy 12" class="s0" d="m1135.42 5.52c-33.01 0-59.77 26.76-59.77 59.77h179.47v182.28c41.31 0 74.79-33.49 74.79-74.79v-107.49h97.9l-40.53-59.77z"/>
	<path id="&lt;Path&gt; copy 13" class="s0" d="m1637.99 5.52c-19.15 0-36.89 10.06-46.72 26.49l-33.02 55.17-32.92-55.13c-9.82-16.45-27.58-26.53-46.74-26.53h-52.18l71.69 106.97c14.73 21.97 22.59 47.83 22.59 74.27v60.81h74.95v-60.86c0-26.42 7.84-52.23 22.53-74.18l71.58-107.01z"/>
	<path id="&lt;Compound Path&gt; copy 2" fill-rule="evenodd" class="s0" d="m299.42 140.33q12.29 15.28 12.3 38.39 0 18.82-8.75 33.85-8.76 15.02-23.95 23.77-9.41 5.45-28.39 7.93-25.26 3.3-33.52 3.3h-21.25c-59.57 0-107.86-48.29-107.86-107.86v-119.3c0-8.22 6.67-14.89 14.89-14.89h125.12q35 0 53.74 17.34 18.74 17.34 18.74 42.93 0 21.46-13.37 36.82-1.3 1.49-2.78 2.89c-7 6.65-6.18 18.27 2 23.4q7.8 4.89 13.08 11.43zm-62.66 29.97q0-10.73-7.84-17.25-7.85-6.52-27.49-6.52h-5.45c-8.22 0-14.89-6.67-14.89-14.89v-16.29c0-8.22 6.67-14.89 14.89-14.89q17.5 0 24.35-6.02 6.85-6.03 6.85-17.42 0-10.57-6.85-16.51-6.85-5.95-23.86-5.95h-18.13c-8.22 0-14.89 6.67-14.89 14.89v111.22c0 8.23 6.67 14.89 14.89 14.89h23.25q19.32 0 27.24-6.85 7.93-6.85 7.93-18.41z"/>
	<path id="&lt;Path&gt; copy 14" class="s0" d="m1742 17.23c-0.15-9.91-13.31-13.51-18.93-5.33l-56.52 82.17-15.53 22.56c-0.73 1.05-1.41 2.13-2.11 3.19-4.81 7.46-8.87 15.32-12.08 23.48-6.11 15.51-9.3 32.1-9.3 48.94v0.35 52.04h2.22c29.44-0.69 62.38-14.72 84.91-36.23q0.45-0.43 0.87-0.91c16.48-18.93 26.47-43.66 26.47-70.73v-119.3q0-0.12 0-0.23z"/>
	<path id="&lt;Path&gt; copy 15" class="s0" d="m507.69 80.65v9.57h-30.38c-16.42 0-29.72 13.31-29.72 29.72 0 16.42 13.3 29.72 29.72 29.72h30.38v97.91c41.49 0 75.13-33.63 75.13-75.12v-166.93c-41.49 0-75.13 33.64-75.13 75.13z"/>
	<path id="&lt;Path&gt; copy 16" class="s0" d="m351.18 80.32v167.25c41.3 0 74.79-33.49 74.79-74.79v-23.12-59.44-84.7c-41.31 0-74.79 33.49-74.79 74.8z"/>
	<path id="&lt;Path&gt; copy 17" class="s0" d="m790.02 32.92v117.77q0 19.79-10.98 30.57-10.98 10.79-30.29 10.79-19.49 0-30.47-10.95-10.98-10.94-10.98-30.41v-117.77c0-15.13-12.26-27.4-27.39-27.4h-47.23v141.79q0 17.52 6.93 40.23 4.29 14.12 15.93 27.42 11.64 13.3 25.68 20.52 14.03 7.22 34.92 9.66 20.88 2.43 38.55 2.43 30.54 0 52.34-7.95 15.68-5.68 29.97-19.71 14.27-14.03 20.96-32.77 6.69-18.74 6.69-39.83v-141.79h-47.24c-15.12 0-27.39 12.27-27.39 27.4z"/>
	<path id="&lt;Path&gt; copy 18" class="s0" d="m1075.65 139.44l-51.84-76.18c-24.58-36.12-65.44-57.74-109.14-57.74v242.05c38.85 0 70.34-31.49 70.34-70.34v-62.56l90.64 132.9c38.94 0 70.5-31.57 70.5-70.5v-93.18h-70.5z"/>
	<path id="&lt;Path&gt; copy 19" class="s0" d="m1135.42 5.52c-33.01 0-59.77 26.76-59.77 59.77h179.47v182.28c41.31 0 74.79-33.49 74.79-74.79v-107.49h97.9l-40.53-59.77z"/>
	<path id="&lt;Path&gt; copy 20" class="s0" d="m1637.99 5.52c-19.15 0-36.89 10.06-46.72 26.49l-33.02 55.17-32.92-55.13c-9.82-16.45-27.58-26.53-46.74-26.53h-52.18l71.69 106.97c14.73 21.97 22.59 47.83 22.59 74.27v60.81h74.95v-60.86c0-26.42 7.84-52.23 22.53-74.18l71.58-107.01z"/>
	<path id="&lt;Compound Path&gt; copy 3" fill-rule="evenodd" class="s0" d="m299.42 140.33q12.29 15.28 12.3 38.39 0 18.82-8.75 33.85-8.76 15.02-23.95 23.77-9.41 5.45-28.39 7.93-25.26 3.3-33.52 3.3h-21.25c-59.57 0-107.86-48.29-107.86-107.86v-119.3c0-8.22 6.67-14.89 14.89-14.89h125.12q35 0 53.74 17.34 18.74 17.34 18.74 42.93 0 21.46-13.37 36.82-1.3 1.49-2.78 2.89c-7 6.65-6.18 18.27 2 23.4q7.8 4.89 13.08 11.43zm-62.66 29.97q0-10.73-7.84-17.25-7.85-6.52-27.49-6.52h-5.45c-8.22 0-14.89-6.67-14.89-14.89v-16.29c0-8.22 6.67-14.89 14.89-14.89q17.5 0 24.35-6.02 6.85-6.03 6.85-17.42 0-10.57-6.85-16.51-6.85-5.95-23.86-5.95h-18.13c-8.22 0-14.89 6.67-14.89 14.89v111.22c0 8.23 6.67 14.89 14.89 14.89h23.25q19.32 0 27.24-6.85 7.93-6.85 7.93-18.41z"/>
	<path id="&lt;Path&gt; copy 21" class="s0" d="m1742 17.23c-0.15-9.91-13.31-13.51-18.93-5.33l-56.52 82.17-15.53 22.56c-0.73 1.05-1.41 2.13-2.11 3.19-4.81 7.46-8.87 15.32-12.08 23.48-6.11 15.51-9.3 32.1-9.3 48.94v0.35 52.04h2.22c29.44-0.69 62.38-14.72 84.91-36.23q0.45-0.43 0.87-0.91c16.48-18.93 26.47-43.66 26.47-70.73v-119.3q0-0.12 0-0.23z"/>
</svg>